PathFileType	4	(X/Y/Z)	Patient4_TMGait_0pt2_01_left_04.trc.trc
DataRate	CameraRate	NumFrames	NumMarkers	Units	OrigDataRate	OrigDataStartFrame	OrigNumFrames
45.161290322581	45.161290322581	5	33	mm	45.161290322581	36	       141
Frame#	Time	Sacral			L.Shoulder			Chest			R.Shoulder			Neck			R.ASIS			L.ASIS			R.Thigh.Superior			R.Thigh.Lateral			R.Thigh.Inferior			R.Patella			L.Thigh.Superior			L.Thigh.Lateral			L.Thigh.Inferior			L.Patella			L.Shank.Superior			L.Shank.Lateral			L.Shank.Inferior			R.Shank.Superior			R.Shank.Lateral			R.Shank.Inferior			R.Heel			R.Midfoot.Superior			R.Midfoot.Lateral			R.Toe			L.Heel			L.Midfoot.Lateral			L.Midfoot.Superior			L.Toe			L.Elbow			L.Wrist			R.Elbow			R.Wrist			
		X1	Y1	Z1	X2	Y2	Z2	X3	Y3	Z3	X4	Y4	Z4	X5	Y5	Z5	X6	Y6	Z6	X7	Y7	Z7	X8	Y8	Z8	X9	Y9	Z9	X10	Y10	Z10	X11	Y11	Z11	X12	Y12	Z12	X13	Y13	Z13	X14	Y14	Z14	X15	Y15	Z15	X16	Y16	Z16	X17	Y17	Z17	X18	Y18	Z18	X19	Y19	Z19	X20	Y20	Z20	X21	Y21	Z21	X22	Y22	Z22	X23	Y23	Z23	X24	Y24	Z24	X25	Y25	Z25	X26	Y26	Z26	X27	Y27	Z27	X28	Y28	Z28	X29	Y29	Z29	X30	Y30	Z30	X31	Y31	Z31	X32	Y32	Z32	X33	Y33	Z33	

36	8.915000000000	803.109200993747	990.540072942450	530.580759337027	890.963332617605	1421.486819771332	317.971748936002	1038.591338758359	1370.728810802639	448.554221582534	992.837966961602	1442.073360643929	636.018377591832	901.997784488994	1483.851915706785	472.547106871613	1048.995228730775	935.692696873424	608.786901519884	994.002345654891	960.980843590707	340.687464993641	1046.054315597646	719.489211910402	579.462262680829	951.243287238592	620.895004060419	651.002104887259	1003.055095499210	557.495078608058	564.355483426309	982.849051263384	468.353728710059	571.200262521007	1074.690202637416	763.533394030693	370.112260283081	1010.943099413684	634.571220134629	299.944001735615	1109.429181334441	570.174781971866	357.542890977386	1120.558813977003	498.138675077782	359.935896665633	1094.053113134919	422.755003264018	349.056596710112	1005.596808397928	310.221278249878	290.676164048970	1060.703334392649	196.048080264820	354.066561831523	937.386784526586	386.096760026144	584.262247488153	852.012415933526	299.867768651028	656.084454305357	866.131624875826	198.521562949366	592.758422181905	701.408377597839	48.561369565751	578.578621768635	876.546546823267	97.495727296338	605.162927689638	787.794658212011	40.082697924606	648.920645128640	994.946041028158	40.479806115352	630.027178563682	935.242053199410	38.164567636830	384.147881826910	1010.420383727064	35.684140466375	304.473584561601	1091.681506308644	99.667694347052	332.639580048921	1220.564221598427	52.485645921036	305.460151104331	795.674938221453	1083.485608645230	222.584664090205	808.011982541089	821.402893523380	236.246459991256	1217.593589995450	1187.953638655775	738.128217803088	1444.037891917236	1265.223400976407	642.220032358008	
37	8.937142857143	801.918798570520	990.943018861086	523.649522581409	892.751481062555	1422.418154405173	313.251302182983	1038.834028204392	1371.207356613975	445.382543654326	990.953957928300	1441.844987251915	632.617702607439	902.071752172334	1484.420821281991	468.317477769269	1047.094345098434	935.729189520004	604.137852963948	994.563669355485	961.516756179265	335.601469699798	1044.279748757026	719.637336072077	575.786956011397	948.996868244129	621.566810643025	647.354517644790	1001.697348306951	557.457132481208	561.634013454040	981.585231098925	467.920320999695	569.081481684299	1074.340543865360	763.343139430957	365.633177118281	1010.127832747155	634.231685522211	296.256845346959	1107.985924130531	569.641885899184	354.694778669148	1118.832143288079	497.580306699980	357.656380646218	1091.971528397689	422.123058528812	347.156394572040	1003.229434347095	309.673437652120	289.071980477045	1057.351950970191	195.700904036072	353.476702907609	935.302393994392	386.207297888325	582.368994208356	849.001345045461	301.087542127275	654.453904571277	862.732485252430	199.093671105494	591.994389425399	697.237802886398	50.106242021513	578.463007988972	872.579649543204	97.761838679037	605.005998742574	783.587469223408	41.044090627218	648.785504022328	990.691260537232	39.903066562719	630.108853139845	930.943317611131	38.161680000475	384.092788575426	1006.102313346085	35.668642146008	304.396376450347	1087.456177997931	99.477683817030	332.595933794821	1216.293346021117	52.228894746739	305.434742499345	803.394738217917	1083.614469174930	212.836701642828	821.749986867195	821.766820388244	223.801130354875	1214.076991570963	1186.746226180982	736.434033955348	1443.000734107832	1261.638454917779	644.564327203412	
38	8.959285714286	800.704155609694	991.427561734097	516.599409644339	894.643144950948	1423.533576521433	308.626467335320	1039.045596367802	1371.792851649854	442.377490232941	988.936532790105	1441.613544442539	629.371206654783	902.170447191248	1485.109668276160	464.185125346857	1045.129128944726	935.862336660272	599.467457155849	995.144258131665	962.133058210513	330.504999618962	1042.684000397429	719.935394018564	572.102251071461	947.049720939623	622.292854884809	643.661595804629	1000.773663653335	557.532293573141	558.912028124612	980.906903467476	467.474604708868	567.065590521910	1073.851690205827	763.116042345716	361.028615968946	1008.921924028263	633.934627412737	292.520103790479	1106.093938142515	569.085770785992	351.731595381089	1116.565951279571	497.050767935365	355.305095858779	1089.440892888772	421.539493540256	345.163007474777	1000.513049579661	309.081626479770	287.414507951234	1053.805244440712	195.377877806819	352.828403634740	933.652770950830	386.376135622756	580.507974805011	846.299589336412	302.481168213137	652.821960216065	859.600807171668	199.835915496234	591.260940007604	693.131163516697	52.051970406571	578.349638772102	868.775452581207	98.137396636562	604.857166772844	779.434259364845	42.255438270410	648.657288187440	986.457217970621	39.336801092630	630.182607337108	926.600967772875	38.149607005227	384.046141161951	1001.739851792822	35.623678762624	304.322707384930	1083.161589106150	99.301425081513	332.519204139561	1211.968350613214	51.999644957810	305.403388895614	811.885542614537	1083.981116179378	203.039181799687	836.551276057008	822.564861602742	211.508323500560	1209.879002406259	1185.012683457595	735.087193258574	1441.529407390834	1256.917412727766	647.743961464927	
39	8.981428571429	799.487151320436	992.000683538200	509.462896369726	896.613724394041	1424.822022322939	304.090838500899	1039.193206563006	1372.497493983792	439.541917621339	986.738373328460	1441.424458775989	626.257415468262	902.245950892824	1485.918208067581	460.133798874534	1043.111620683053	936.114799542460	594.822596387584	995.771177455632	962.849627617104	325.436177880689	1041.367599881326	720.400828822456	568.418643423038	945.562305603934	623.046885034615	639.933819484121	1000.457990707402	557.726658265270	556.184252106147	981.003625711381	467.001013730269	565.158542316504	1073.214616590751	762.850891379341	356.342592958763	1007.313908155384	633.711534889417	288.737899306666	1103.710265463266	568.519067406164	348.675711787475	1113.698167638089	496.571593258561	352.900293087580	1086.418525281916	421.027770449582	343.077640105950	997.421048778401	308.462655615256	285.684650698215	1050.041246148963	195.094424747908	352.117552614827	932.593491083438	386.589824429818	578.677750323737	844.036663736375	304.075720060013	651.167542943165	856.828351605433	200.773027815228	590.543257699201	689.135628898911	54.497055074177	578.208172554920	865.189074223796	98.646420074385	604.710628539703	775.362916202987	43.781169412920	648.518118160335	982.247710647763	38.797088881173	630.244765340643	922.214831222598	38.128848393916	384.002489501891	997.333153696750	35.552456934750	304.245258837400	1078.790397706757	99.153670990198	332.401462294596	1207.588812865202	51.825461095037	305.359770070059	821.211387310343	1084.597089047870	193.255058447636	852.453111226402	823.816757880348	199.428419454891	1204.866031131187	1182.749172443607	734.101345084958	1439.446812360158	1250.985550422573	651.717049619588	
40	9.003571428571	798.295873894352	992.660222933584	502.282344378521	898.637770688573	1426.262945407821	299.643832347223	1039.245475360966	1373.329362535246	436.884672427360	984.311076023478	1441.323035449417	623.257731967272	902.251488232741	1486.841984404752	456.151141834555	1041.060589783197	936.503761013942	590.252483723776	996.469057624115	963.690404057251	320.434510026141	1040.444060076667	721.051917160867	564.739116784466	944.710857798677	623.801562877396	636.179038242121	1000.939094907699	558.046439449114	553.441863041054	982.069074682899	466.492400649120	563.354554550114	1072.417806872745	762.544492515562	351.610029190456	1005.290425033145	633.587664209810	284.914090311277	1100.799229399078	567.951490234188	345.543399398160	1110.180806051552	496.160083110999	350.450032730850	1082.870475061335	420.609927479939	340.898743323079	993.928870782019	307.833538486209	283.872273337848	1046.042341572922	194.865957202570	351.340806418938	932.295024785288	386.836658003672	576.872506197323	842.358903600537	305.900754526525	649.462612503239	854.516993286091	201.929946538341	589.821176405115	685.314732150345	57.547872958972	578.001586395150	861.882481067621	99.307274268928	604.558703907566	771.411089006596	45.690685906829	648.345515353869	978.069518304082	38.294473788899	630.292608912733	917.788883561329	38.099543300050	383.956547691389	992.886724168111	35.459497197243	304.158258421594	1074.340601472280	99.046497655648	332.236601281777	1203.158401755672	51.731307315513	305.299166797763	831.420725818978	1085.473598457085	183.562491027458	869.478569829591	825.543780770079	187.631973659690	1198.895143763612	1179.961552440977	733.479330223628	1436.558759083755	1243.781917417366	656.412678231726	
